# xmcd
#
# Track frame offsets:
#	150
#	16548
#	33246
#	52269
#	69717
#	90315
#	105063
#	121761
#	140934
#	160407
#	176205
#	194478
#	210051
#
# Disc length: 3077 seconds
#
# Revision: 1
# Processed by: cddbd v1.5.2PL0 Copyright (c) Steve Scherf et al.
# Submitted via: audiograbber 1.83.01
#
DISCID=a80c030d
DTITLE=Rascal Flatts - Greatest Hits Volume 1 - Disc 1
DYEAR=2008
DGENRE=
TTITLE0=Prayin' For Daylight
TTITLE1=I'm Movin' On
TTITLE2=These Days
TTITLE3=I Melt
TTITLE4=Mayberry
TTITLE5=Feels Like Today
TTITLE6=Bless The Broken Road
TTITLE7=Fast Cars and Freedom
TTITLE8=Skin (Sarabeth)
TTITLE9=What Hurts The Most
TTITLE10=My Wish
TTITLE11=Stand
TTITLE12=Life Is A Highway
EXTD=
EXTT0=
EXTT1=
EXTT2=
EXTT3=
EXTT4=
EXTT5=
EXTT6=
EXTT7=
EXTT8=
EXTT9=
EXTT10=
EXTT11=
EXTT12=
PLAYORDER=
